<svg xmlns="http://www.w3.org/2000/svg" xmlns:xlink="http://www.w3.org/1999/xlink" width="1341.060546875" height="1341.060791015625" viewBox="0 0 1341.060546875 1341.060791015625" fill="none"><path d="M428.686 655.776C394.15 612.094 311.914 565.544 296.299 511.589C272.4 427.22 388.598 367.605 468.33 346.035C531.275 331.918 743.672 332.713 672.834 406.099C568.469 514.215 633.339 580.906 609.802 628.838C589.008 612.805 549.636 605.06 524.488 606.736C498.06 608.796 441.087 631.057 428.686 655.776Z"   fill="url(#linear_fill_u59LxiquoPrf2hZF3n1MR)" ></path><path d="M679.511 691.311C734.464 682.305 815.067 632.98 869.822 645.504C955.191 665.539 950.944 796.068 931.122 876.253C912.927 938.142 809.183 1123.48 779.382 1025.93C735.477 882.221 645.688 906.588 615.196 862.751C639.303 852.348 665.178 821.677 675.913 798.875C686.934 774.765 695.11 714.147 679.511 691.311Z"   fill="url(#linear_fill_6_31)" ></path><path d="M507.999 877.397C486.444 928.742 485.429 1023.23 445.737 1062.98C383.421 1124.67 275.078 1051.75 217.664 992.366C174.888 944.079 72.9469 757.742 171.427 784.299C316.515 823.424 343.556 734.403 396.893 731.849C392.905 757.8 405.15 796.013 418.769 817.221C433.344 839.363 480.365 878.485 507.999 877.397Z"   fill="url(#linear_fill_6_32)" ></path><path d="M530.713 843.577C476.204 837.213 437.24 787.77 443.79 733.283C450.342 678.797 499.917 640.001 554.38 646.74C608.582 653.444 647.149 702.728 640.629 756.953C634.109 811.177 584.958 849.911 530.713 843.577Z"   fill="url(#linear_fill_CnYay4qBOku8NHUgw8TfQ)" ></path><defs><linearGradient id="linear_fill_u59LxiquoPrf2hZF3n1MR" x1="296.89111328125" y1="521.7655029296875" x2="699.33349609375" y2="465.6083984375" gradientUnits="userSpaceOnUse"><stop offset="0" stop-color="#0080FF"  /><stop offset="0.4542" stop-color="#69A8FA"  /><stop offset="0.9494" stop-color="#90E3F5"  /></linearGradient><linearGradient id="linear_fill_6_31" x1="860.63623046875" y1="641.083984375" x2="714.48876953125" y2="1020.233642578125" gradientUnits="userSpaceOnUse"><stop offset="0" stop-color="#0080FF"  /><stop offset="0.4542" stop-color="#69A8FA"  /><stop offset="0.9494" stop-color="#90E3F5"  /></linearGradient><linearGradient id="linear_fill_6_32" x1="454.35986328125" y1="1057.5416259765625" x2="210.7216796875" y2="732.34130859375" gradientUnits="userSpaceOnUse"><stop offset="0" stop-color="#0080FF"  /><stop offset="0.4542" stop-color="#69A8FA"  /><stop offset="0.9494" stop-color="#90E3F5"  /></linearGradient><linearGradient id="linear_fill_CnYay4qBOku8NHUgw8TfQ" x1="444.59814453125" y1="727.827880859375" x2="639.8212890625" y2="762.408447265625" gradientUnits="userSpaceOnUse"><stop offset="0" stop-color="#0080FF"  /><stop offset="0.4542" stop-color="#69A8FA"  /><stop offset="0.9494" stop-color="#90E3F5"  /></linearGradient></defs></svg>